<svg _ngcontent-uhx-c94="" height="38" viewBox="0 0 512 512" width="38" xmlns="http://www.w3.org/2000/svg" class="ng-tns-c94-0"><g _ngcontent-uhx-c94="" id="flat" class="ng-tns-c94-0"><path _ngcontent-uhx-c94="" d="m384 344h-64l-64 56-64-56h-64a56 56 0 0 0 -56 56v88h368v-88a56 56 0 0 0 -56-56z" fill="#cbcbcb" class="ng-tns-c94-0"></path><path _ngcontent-uhx-c94="" d="m352 169v-41h-192v40z" fill="#683b0d" class="ng-tns-c94-0"></path><g _ngcontent-uhx-c94="" fill="#fdc9a6" class="ng-tns-c94-0"><path _ngcontent-uhx-c94="" d="m288.909 288.907-.857.476a66 66 0 0 1 -64.1 0l-.857-.476a76 76 0 0 1 -39.095-66.436v-94.471h144v94.471a76 76 0 0 1 -39.091 66.436z" class="ng-tns-c94-0"></path><path _ngcontent-uhx-c94="" d="m328 208v14.47c0 .99-.02 1.97-.06 2.95a75.994 75.994 0 0 1 -39.03 63.49l-.86.47a65.96 65.96 0 0 1 -64.1 0l-.86-.47a76.008 76.008 0 0 1 -39.09-66.44v-14.47l72-16z" class="ng-tns-c94-0"></path><path _ngcontent-uhx-c94="" d="m216 283.189h80v36.811l24 24-64 56-64-56 24-24z" class="ng-tns-c94-0"></path><path _ngcontent-uhx-c94="" d="m184 219.189a32 32 0 0 1 -32-32 32 32 0 0 1 32-32z" class="ng-tns-c94-0"></path><path _ngcontent-uhx-c94="" d="m328 219.189a32 32 0 0 0 32-32 32 32 0 0 0 -32-32z" class="ng-tns-c94-0"></path></g><circle _ngcontent-uhx-c94="" cx="224" cy="163.189" fill="#683b0d" r="16" class="ng-tns-c94-0"></circle><circle _ngcontent-uhx-c94="" cx="288" cy="163.189" fill="#683b0d" r="16" class="ng-tns-c94-0"></circle><path _ngcontent-uhx-c94="" d="m152 128a104 104 0 0 1 104-104 104 104 0 0 1 104 104z" fill="#cbcbcb" class="ng-tns-c94-0"></path><path _ngcontent-uhx-c94="" d="m197.044 488h-5.044v-144l64 56 64-56v144z" fill="#0bafea" class="ng-tns-c94-0"></path><path _ngcontent-uhx-c94="" d="m328 208-.06 17.42a75.994 75.994 0 0 1 -39.03 63.49l-.86.47a65.96 65.96 0 0 1 -64.1 0l-.86-.47a76.008 76.008 0 0 1 -39.09-66.44v-14.47l72-16z" fill="#2ad3b3" class="ng-tns-c94-0"></path><path _ngcontent-uhx-c94="" d="m280 240h-48a8 8 0 0 1 0-16h48a8 8 0 0 1 0 16z" fill="#04957c" class="ng-tns-c94-0"></path><path _ngcontent-uhx-c94="" d="m280 272h-48a8 8 0 0 1 0-16h48a8 8 0 0 1 0 16z" fill="#04957c" class="ng-tns-c94-0"></path><path _ngcontent-uhx-c94="" d="m216 312v8l-8.68 8.68a56.069 56.069 0 0 0 -47.32 55.32v40c0 4.42-3.58 5-8 5s-8-.58-8-5v-40a72.083 72.083 0 0 1 72-72z" fill="#029532" class="ng-tns-c94-0"></path><path _ngcontent-uhx-c94="" d="m368 384v40a8 8 0 0 1 -16 0v-40a56.069 56.069 0 0 0 -47.32-55.32l-8.68-8.68v-8a72.083 72.083 0 0 1 72 72z" fill="#029532" class="ng-tns-c94-0"></path><path _ngcontent-uhx-c94="" d="m200 488h-16v-24a32 32 0 0 0 -64 0v24h-16v-24a48 48 0 0 1 96 0z" fill="#027e2a" class="ng-tns-c94-0"></path><circle _ngcontent-uhx-c94="" cx="360" cy="448" fill="#eaeae8" r="23.832" class="ng-tns-c94-0"></circle><circle _ngcontent-uhx-c94="" cx="360" cy="448" fill="#fbfdff" r="16" class="ng-tns-c94-0"></circle><path _ngcontent-uhx-c94="" d="m288 412-16 28h-32l-16-29 32-11z" fill="#0296e5" class="ng-tns-c94-0"></path><path _ngcontent-uhx-c94="" d="m240 440-8 48h48l-8-48z" fill="#026ca2" class="ng-tns-c94-0"></path><path _ngcontent-uhx-c94="" d="m256 400-64 24v-80z" fill="#8feaff" class="ng-tns-c94-0"></path><path _ngcontent-uhx-c94="" d="m256 400 64 24v-80z" fill="#8feaff" class="ng-tns-c94-0"></path></g></svg>