<svg _ngcontent-uhx-c94="" id="Layer_1" enable-background="new 0 0 464 464" height="38" viewBox="0 0 464 464" width="38" xmlns="http://www.w3.org/2000/svg" class="ng-tns-c94-0"><path _ngcontent-uhx-c94="" d="m464 225.044v118.46c0 17.67-14.33 32-32 32h-400c-17.67 0-32-14.33-32-32v-230c0-17.67 14.33-32 32-32h204v-19c0-21.347 25.888-32.017 40.97-16.97 4.34 4.35 7.03 10.35 7.03 16.97v19h53c32.44 0 62.69 16.38 80.41 43.56l31 47.54c10.17 15.591 15.59 33.82 15.59 52.44z" fill="#fe4f60" class="ng-tns-c94-0"></path><path _ngcontent-uhx-c94="" d="m284 81.504h-48c0-7.15 0-11.764 0-19 0-13.25 10.75-24 24-24 13.252 0 24 10.76 24 24z" fill="#d6f4fc" class="ng-tns-c94-0"></path><circle _ngcontent-uhx-c94="" cx="355" cy="375.504" fill="#42434d" r="50" class="ng-tns-c94-0"></circle><circle _ngcontent-uhx-c94="" cx="109" cy="375.504" fill="#42434d" r="50" class="ng-tns-c94-0"></circle><path _ngcontent-uhx-c94="" d="m211 194.604v20.801c0 4.418-3.582 8-8 8h-24.6c-4.418 0-8 3.581-8 8v24.6c0 4.418-3.582 8-8 8h-20.8c-4.418 0-8-3.582-8-8v-24.6c0-4.419-3.582-8-8-8h-24.6c-4.418 0-8-3.582-8-8v-20.801c0-4.418 3.582-8 8-8h24.6c4.418 0 8-3.581 8-8v-24.6c0-4.418 3.582-8 8-8h20.8c4.418 0 8 3.582 8 8v24.6c0 4.419 3.582 8 8 8h24.6c4.418 0 8 3.582 8 8z" fill="#d6f4fc" class="ng-tns-c94-0"></path><path _ngcontent-uhx-c94="" d="m427.43 140.434c-12.48-5.79-26.25-8.93-40.43-8.93h-305c-17.673 0-32 14.327-32 32v180.107c0 32.544-50 34.259-50-.107v-230c0-17.673 14.327-32 32-32h305c32.44 0 62.69 16.38 80.41 43.56z" fill="#ff6d7a" class="ng-tns-c94-0"></path><path _ngcontent-uhx-c94="" d="m464 228.504h-131c-17.67 0-32-14.33-32-32v-115h36c32.44 0 62.69 16.38 80.41 43.56l31 47.54c11.798 18.086 15.59 35.889 15.59 55.9z" fill="#d6f4fc" class="ng-tns-c94-0"></path><g _ngcontent-uhx-c94="" fill="#f1fafc" class="ng-tns-c94-0"><path _ngcontent-uhx-c94="" d="m340.894 131.33c-11.301.084-24.44.175-39.894.175v-50c39.341 0 37.72-.041 41.154.119 32.057 1.496 30.83 49.466-1.26 49.706z" class="ng-tns-c94-0"></path><path _ngcontent-uhx-c94="" d="m264.777 57.297c-7.474 3.974-12.777 11.812-12.777 21.207v3h-16v-18.453c0-13.309 10.599-24.497 23.909-24.546 11.222-.042 13.954 13.96 4.868 18.792z" class="ng-tns-c94-0"></path><path _ngcontent-uhx-c94="" d="m163.808 205.757c-4.941 5.443-10.574 10.207-16.783 14.194-9.69 6.223-19.612 3.453-21.425 3.453h-24.6c-4.418 0-8-3.582-8-8v-20.801c0-4.418 3.582-8 8-8h24.6c4.418 0 8-3.582 8-8v-24.6c0-4.418 3.582-8 8-8h20.8c4.418 0 8 3.582 8 8 0 26.789-.053 25.033.128 26.035 1.674 9.24-.41 18.768-6.72 25.719z" class="ng-tns-c94-0"></path></g><path _ngcontent-uhx-c94="" d="m126.929 345.315c-25.451 1.1-46.993 22.741-48.092 48.167-.358 8.285-11.69 10.611-15.191 3.093-2.981-6.402-4.646-13.542-4.646-21.069-.001-36.886 38.274-60.579 71.017-45.38 7.521 3.49 5.196 14.831-3.088 15.189z" fill="#4d4e59" class="ng-tns-c94-0"></path><path _ngcontent-uhx-c94="" d="m372.929 345.315c-25.451 1.1-46.993 22.741-48.092 48.167-.358 8.285-11.69 10.611-15.191 3.093-2.981-6.403-4.646-13.542-4.646-21.069-.001-36.886 38.274-60.579 71.017-45.38 7.521 3.49 5.196 14.831-3.088 15.189z" fill="#4d4e59" class="ng-tns-c94-0"></path></svg>