<svg id="Capa_1" enable-background="new 0 0 512 512" height="512" viewBox="0 0 512 512" width="512" xmlns="http://www.w3.org/2000/svg"><g><g><path d="m45 0c-24.853 0-45 20.147-45 45v452c0 8.284 6.716 15 15 15h300c8.284 0 15-6.716 15-15v-345l40-152z" fill="#fff5f5"/><path d="m165 512h150c8.284 0 15-6.716 15-15v-345l40-152h-205z" fill="#e2dff4"/><path d="m415 152h-85v-112c0-22.091 17.909-40 40-40 22.091 0 40 17.909 40 40v53.459l18.416 36.833c4.987 9.973-2.265 21.708-13.416 21.708z" fill="#d5d3ea"/><g fill="#485959"><path d="m195 272h-120c-8.284 0-15-6.716-15-15s6.716-15 15-15h120c8.284 0 15 6.716 15 15s-6.716 15-15 15z"/><path d="m195 332h-120c-8.284 0-15-6.716-15-15s6.716-15 15-15h120c8.284 0 15 6.716 15 15s-6.716 15-15 15z"/><path d="m225 392h-150c-8.284 0-15-6.716-15-15s6.716-15 15-15h150c8.284 0 15 6.716 15 15s-6.716 15-15 15z"/><path d="m225 452h-150c-8.284 0-15-6.716-15-15s6.716-15 15-15h150c8.284 0 15 6.716 15 15s-6.716 15-15 15z"/></g><path d="m195 242h-30v30h30c8.284 0 15-6.716 15-15s-6.716-15-15-15z" fill="#3f4a4a"/><path d="m195 302h-30v30h30c8.284 0 15-6.716 15-15s-6.716-15-15-15z" fill="#3f4a4a"/><path d="m225 362h-60v30h60c8.284 0 15-6.716 15-15s-6.716-15-15-15z" fill="#3f4a4a"/><path d="m225 422h-60v30h60c8.284 0 15-6.716 15-15s-6.716-15-15-15z" fill="#3f4a4a"/><path d="m149.803 200.463-17.54-24.934 14.565-20.675c3.976-5.644 2.624-13.442-3.02-17.418-5.644-3.978-13.442-2.624-17.417 3.02l-9.407 13.353-12.897-18.334c19.807-2.977 35.031-19.895 35.031-40.255 0-22.453-18.515-40.72-41.273-40.72h-27.845c-3.322 0-6.507 1.322-8.853 3.675-2.336 2.344-3.645 5.518-3.645 8.825h-.002v100c0 6.903 5.597 12.5 12.5 12.5s12.5-5.597 12.5-12.5v-18.759l19.189 27.278-17.568 24.937c-3.976 5.644-2.624 13.442 3.02 17.418 2.188 1.542 4.7 2.282 7.188 2.282 3.928 0 7.795-1.847 10.229-5.302l12.41-17.615 12.387 17.608c2.434 3.459 6.303 5.309 10.234 5.309 2.485 0 4.995-.739 7.181-2.277 5.647-3.972 7.005-11.77 3.033-17.416zm-51.959-120.963c8.821 0 16.273 7.199 16.273 15.72s-7.452 15.721-16.273 15.721c-3.531 0-9.635.026-15.219.055-.029-5.783-.071-25.455-.088-31.495h15.307z" fill="#485959"/></g><g><path d="m467 512h-180c-8.284 0-15-6.716-15-15v-225h210v225c0 8.284-6.716 15-15 15z" fill="#fff16b"/><path d="m377 512h90c8.284 0 15-6.716 15-15v-225h-105z" fill="#ffc178"/><path d="m407 382h-15v-15c0-8.284-6.716-15-15-15s-15 6.716-15 15v15h-15c-8.284 0-15 6.716-15 15s6.716 15 15 15h15v15c0 8.284 6.716 15 15 15s15-6.716 15-15v-15h15c8.284 0 15-6.716 15-15s-6.716-15-15-15z" fill="#fff5f5"/><path d="m392 427v-15h15c8.284 0 15-6.716 15-15s-6.716-15-15-15h-15v-15c0-8.284-6.716-15-15-15v90c8.284 0 15-6.716 15-15z" fill="#e2dff4"/><path d="m497 192h-240c-8.284 0-15 6.716-15 15v65c0 8.284 6.716 15 15 15h240c8.284 0 15-6.716 15-15v-65c0-8.284-6.716-15-15-15z" fill="#607882"/><path d="m309.5 192h67.5v95h-67.5z" fill="#485959"/><path d="m497 192h-52.5v95h52.5c8.284 0 15-6.716 15-15v-65c0-8.284-6.716-15-15-15z" fill="#323c3c"/><path d="m377 192h67.5v95h-67.5z" fill="#3f4a4a"/></g></g></svg>